<svg xmlns="http://www.w3.org/2000/svg" width="375" viewBox="0 0 375 375" height="375" version="1.0"><defs><clipPath id="a"><path d="M 114 133.257812 L 259 133.257812 L 259 223 L 114 223 Z M 114 133.257812"/></clipPath><clipPath id="b"><path d="M 113.453125 133.257812 L 261.203125 133.257812 L 261.203125 223.257812 L 113.453125 223.257812 Z M 113.453125 133.257812"/></clipPath></defs><g clip-path="url(#a)"><path fill="#FFF" d="M 116.753906 221.917969 C 115.664062 221.074219 115.683594 220.007812 116.808594 219.242188 C 117.96875 218.445312 119.429688 218.460938 120.484375 219.28125 C 121.578125 220.125 121.554688 221.191406 120.433594 221.957031 C 119.269531 222.753906 117.808594 222.738281 116.753906 221.917969 Z M 124.714844 218.46875 C 121.800781 217.316406 121.847656 213.96875 124.796875 212.859375 C 127.015625 212.023438 129.710938 212.585938 130.796875 214.113281 C 132.859375 217.019531 128.660156 220.027344 124.714844 218.46875 Z M 136.023438 213.207031 C 132.207031 211.722656 130.683594 208.335938 132.640625 205.671875 C 134.679688 202.894531 139.332031 201.785156 142.984375 203.207031 C 146.804688 204.695312 148.324219 208.082031 146.371094 210.742188 C 144.328125 213.523438 139.679688 214.628906 136.023438 213.207031 Z M 193.695312 208.054688 C 188.714844 207.265625 185.53125 206.304688 181.722656 204.4375 L 179.65625 203.421875 L 176.113281 204.695312 C 174.167969 205.394531 171.355469 206.152344 169.867188 206.378906 C 155.933594 208.496094 142.289062 202.339844 138.730469 192.332031 C 138.246094 190.96875 137.851562 190.355469 137.503906 190.425781 C 137.222656 190.480469 135.597656 190.589844 133.894531 190.667969 C 128.261719 190.933594 123.667969 189.613281 119.703125 186.585938 C 117.34375 184.785156 116.316406 183.507812 115.375 181.191406 C 114.105469 178.074219 114.882812 173.691406 117.199219 170.929688 C 118.664062 169.183594 121.953125 166.949219 124.355469 166.070312 L 126.582031 165.257812 L 127.066406 163.425781 C 128.894531 156.5 137.515625 151.316406 147.203125 151.316406 L 149.449219 151.316406 L 149.695312 149.605469 C 150.660156 142.898438 157.617188 136.761719 166.964844 134.378906 C 169.101562 133.835938 170.265625 133.738281 174.699219 133.738281 C 179.136719 133.738281 180.300781 133.835938 182.433594 134.378906 C 189.496094 136.179688 195.117188 139.960938 197.957031 144.816406 C 198.5625 145.859375 199.253906 146.644531 199.535156 146.613281 C 199.808594 146.582031 201.078125 146.277344 202.351562 145.941406 C 205.511719 145.105469 211.121094 144.910156 214.625 145.511719 C 221.402344 146.667969 227.4375 150.125 230.285156 154.476562 C 231.175781 155.839844 231.492188 156.09375 232.132812 155.957031 C 233.859375 155.59375 239.238281 155.5 241.417969 155.792969 C 245.148438 156.300781 249.058594 157.824219 252.058594 159.929688 C 260.691406 166 260.902344 175.472656 252.546875 181.777344 C 248.117188 185.117188 242.554688 186.703125 236.144531 186.445312 L 232.804688 186.3125 L 232.339844 188.410156 C 229.753906 200.082031 216.046875 208.539062 199.839844 208.460938 C 197.820312 208.453125 195.054688 208.269531 193.695312 208.054688 Z M 193.695312 208.054688"/></g><g clip-path="url(#b)"><path transform="matrix(.16016 0 0 .16066 104.93 129.24)" fill="none" d="M 73.820321 576.863254 C 67.015729 571.611378 67.137675 564.973591 74.16177 560.208 C 81.405368 555.247895 90.526935 555.345152 97.112024 560.451142 C 103.941005 565.703018 103.79467 572.340805 96.794964 577.106396 C 89.526977 582.066501 80.40541 581.969244 73.820321 576.863254 Z M 123.525547 555.39378 C 105.331191 548.22108 105.623861 527.383776 124.037721 520.478532 C 137.890797 515.275285 154.719357 518.776535 161.49956 528.283403 C 174.377067 546.373197 148.158658 565.095162 123.525547 555.39378 Z M 194.132334 522.642499 C 170.304068 513.403088 160.792273 492.322643 173.011271 475.740331 C 185.742443 458.452907 214.790001 451.547663 237.59392 460.398046 C 261.446576 469.661771 270.933981 490.742217 258.739372 507.300214 C 245.983811 524.611953 216.960642 531.492883 194.132334 522.642499 Z M 554.214749 490.572017 C 523.118496 485.660541 503.241284 479.679238 479.461796 468.057031 L 466.5599 461.735329 L 444.438879 469.661771 C 432.293048 474.01402 414.732811 478.730983 405.440519 480.141208 C 318.444178 493.319526 233.252639 455.000285 211.034062 392.707203 C 208.009799 384.221533 205.546488 380.404197 203.375847 380.841854 C 201.619824 381.182253 191.473909 381.863052 180.84021 382.349336 C 145.670957 384.002705 116.989237 375.784492 92.234181 356.940956 C 77.503093 345.732091 71.088728 337.781335 65.210927 323.362991 C 57.284431 303.960228 62.137885 276.679651 76.600692 259.489483 C 85.746649 248.621018 106.28237 234.713273 121.281739 229.242569 L 135.183594 224.185207 L 138.207857 212.781829 C 149.622011 169.672682 203.449015 137.407686 263.934276 137.407686 L 277.958076 137.407686 L 279.494597 126.758049 C 285.518734 85.010499 328.955931 46.812829 387.31933 31.981143 C 400.660232 28.601463 407.928219 27.993607 435.609982 27.993607 C 463.316134 27.993607 470.584121 28.601463 483.900634 31.981143 C 527.99634 43.190007 563.092425 66.726191 580.823386 96.948791 C 584.603715 103.440693 588.920607 108.327855 590.67663 108.133341 C 592.383876 107.938827 600.310371 106.042317 608.261257 103.951292 C 627.992134 98.748045 663.015051 97.532333 684.89218 101.276726 C 727.207473 108.473741 764.888815 129.991843 782.668555 157.077906 C 788.229297 165.563575 790.204823 167.144001 794.204655 166.293003 C 804.98469 164.031778 838.568643 163.448237 852.177827 165.271805 C 875.46953 168.432656 899.883137 177.915209 918.614057 191.020584 C 972.514229 228.804913 973.831246 287.766944 921.662709 327.010127 C 894.005336 347.798802 859.275089 357.670383 819.252382 356.065643 L 798.399601 355.238959 L 795.497284 368.295706 C 779.351621 440.946654 693.769855 493.586983 592.578989 493.100698 C 579.969764 493.05207 562.702197 491.9093 554.214749 490.572017 Z M 554.214749 490.572017" stroke="#000" stroke-width="6"/></g><g><g><g><path d="M 12.5625 0 L 9.8125 0 L 8.265625 -6 C 8.203125 -6.21875 8.101562 -6.660156 7.96875 -7.328125 C 7.832031 -7.992188 7.753906 -8.441406 7.734375 -8.671875 C 7.703125 -8.390625 7.625 -7.9375 7.5 -7.3125 C 7.375 -6.695312 7.273438 -6.253906 7.203125 -5.984375 L 5.671875 0 L 2.921875 0 L 0 -11.421875 L 2.390625 -11.421875 L 3.84375 -5.1875 C 4.101562 -4.039062 4.289062 -3.046875 4.40625 -2.203125 C 4.4375 -2.492188 4.503906 -2.953125 4.609375 -3.578125 C 4.722656 -4.203125 4.832031 -4.6875 4.9375 -5.03125 L 6.59375 -11.421875 L 8.890625 -11.421875 L 10.546875 -5.03125 C 10.617188 -4.738281 10.707031 -4.296875 10.8125 -3.703125 C 10.925781 -3.117188 11.015625 -2.617188 11.078125 -2.203125 C 11.128906 -2.609375 11.210938 -3.113281 11.328125 -3.71875 C 11.441406 -4.320312 11.546875 -4.8125 11.640625 -5.1875 L 13.09375 -11.421875 L 15.46875 -11.421875 Z M 12.5625 0" transform="translate(145.036 175.325)"/></g></g></g><g><g><g><path d="M 9.3125 0 L 6.9375 0 L 6.9375 -5.109375 C 6.9375 -6.367188 6.46875 -7 5.53125 -7 C 4.863281 -7 4.378906 -6.769531 4.078125 -6.3125 C 3.785156 -5.863281 3.640625 -5.128906 3.640625 -4.109375 L 3.640625 0 L 1.25 0 L 1.25 -12.15625 L 3.640625 -12.15625 L 3.640625 -9.6875 C 3.640625 -9.488281 3.617188 -9.035156 3.578125 -8.328125 L 3.53125 -7.625 L 3.65625 -7.625 C 4.1875 -8.476562 5.03125 -8.90625 6.1875 -8.90625 C 7.207031 -8.90625 7.984375 -8.628906 8.515625 -8.078125 C 9.046875 -7.523438 9.3125 -6.734375 9.3125 -5.703125 Z M 9.3125 0" transform="translate(160.501 175.325)"/></g></g></g><g><g><g><path d="M 4.875 -7.203125 C 4.363281 -7.203125 3.960938 -7.039062 3.671875 -6.71875 C 3.390625 -6.40625 3.226562 -5.953125 3.1875 -5.359375 L 6.53125 -5.359375 C 6.519531 -5.953125 6.363281 -6.40625 6.0625 -6.71875 C 5.769531 -7.039062 5.375 -7.203125 4.875 -7.203125 Z M 5.203125 0.15625 C 3.796875 0.15625 2.695312 -0.226562 1.90625 -1 C 1.113281 -1.78125 0.71875 -2.882812 0.71875 -4.3125 C 0.71875 -5.769531 1.082031 -6.898438 1.8125 -7.703125 C 2.550781 -8.503906 3.566406 -8.90625 4.859375 -8.90625 C 6.085938 -8.90625 7.046875 -8.550781 7.734375 -7.84375 C 8.421875 -7.144531 8.765625 -6.175781 8.765625 -4.9375 L 8.765625 -3.78125 L 3.140625 -3.78125 C 3.160156 -3.101562 3.359375 -2.570312 3.734375 -2.1875 C 4.109375 -1.8125 4.632812 -1.625 5.3125 -1.625 C 5.84375 -1.625 6.34375 -1.675781 6.8125 -1.78125 C 7.28125 -1.894531 7.769531 -2.070312 8.28125 -2.3125 L 8.28125 -0.46875 C 7.863281 -0.257812 7.414062 -0.101562 6.9375 0 C 6.46875 0.101562 5.890625 0.15625 5.203125 0.15625 Z M 5.203125 0.15625" transform="translate(171.014 175.325)"/></g></g></g><g><g><g><path d="M 6.125 -8.90625 C 6.445312 -8.90625 6.71875 -8.878906 6.9375 -8.828125 L 6.75 -6.59375 C 6.5625 -6.644531 6.328125 -6.671875 6.046875 -6.671875 C 5.285156 -6.671875 4.691406 -6.472656 4.265625 -6.078125 C 3.847656 -5.691406 3.640625 -5.148438 3.640625 -4.453125 L 3.640625 0 L 1.25 0 L 1.25 -8.734375 L 3.0625 -8.734375 L 3.40625 -7.265625 L 3.53125 -7.265625 C 3.800781 -7.753906 4.164062 -8.148438 4.625 -8.453125 C 5.082031 -8.753906 5.582031 -8.90625 6.125 -8.90625 Z M 6.125 -8.90625" transform="translate(180.465 175.325)"/></g></g></g><g><g><g><path d="M 4.875 -7.203125 C 4.363281 -7.203125 3.960938 -7.039062 3.671875 -6.71875 C 3.390625 -6.40625 3.226562 -5.953125 3.1875 -5.359375 L 6.53125 -5.359375 C 6.519531 -5.953125 6.363281 -6.40625 6.0625 -6.71875 C 5.769531 -7.039062 5.375 -7.203125 4.875 -7.203125 Z M 5.203125 0.15625 C 3.796875 0.15625 2.695312 -0.226562 1.90625 -1 C 1.113281 -1.78125 0.71875 -2.882812 0.71875 -4.3125 C 0.71875 -5.769531 1.082031 -6.898438 1.8125 -7.703125 C 2.550781 -8.503906 3.566406 -8.90625 4.859375 -8.90625 C 6.085938 -8.90625 7.046875 -8.550781 7.734375 -7.84375 C 8.421875 -7.144531 8.765625 -6.175781 8.765625 -4.9375 L 8.765625 -3.78125 L 3.140625 -3.78125 C 3.160156 -3.101562 3.359375 -2.570312 3.734375 -2.1875 C 4.109375 -1.8125 4.632812 -1.625 5.3125 -1.625 C 5.84375 -1.625 6.34375 -1.675781 6.8125 -1.78125 C 7.28125 -1.894531 7.769531 -2.070312 8.28125 -2.3125 L 8.28125 -0.46875 C 7.863281 -0.257812 7.414062 -0.101562 6.9375 0 C 6.46875 0.101562 5.890625 0.15625 5.203125 0.15625 Z M 5.203125 0.15625" transform="translate(187.729 175.325)"/></g></g></g><g><g><g><path d="M 4.9375 -1.75 C 5.351562 -1.75 5.851562 -1.835938 6.4375 -2.015625 L 6.4375 -0.25 C 5.84375 0.0195312 5.113281 0.15625 4.25 0.15625 C 3.289062 0.15625 2.59375 -0.0820312 2.15625 -0.5625 C 1.726562 -1.050781 1.515625 -1.773438 1.515625 -2.734375 L 1.515625 -6.953125 L 0.375 -6.953125 L 0.375 -7.953125 L 1.6875 -8.75 L 2.375 -10.59375 L 3.890625 -10.59375 L 3.890625 -8.734375 L 6.34375 -8.734375 L 6.34375 -6.953125 L 3.890625 -6.953125 L 3.890625 -2.734375 C 3.890625 -2.398438 3.984375 -2.148438 4.171875 -1.984375 C 4.367188 -1.828125 4.625 -1.75 4.9375 -1.75 Z M 4.9375 -1.75" transform="translate(201.335 175.325)"/></g></g></g><g><g><g><path d="M 3.15625 -4.390625 C 3.15625 -3.523438 3.296875 -2.867188 3.578125 -2.421875 C 3.859375 -1.984375 4.320312 -1.765625 4.96875 -1.765625 C 5.601562 -1.765625 6.054688 -1.984375 6.328125 -2.421875 C 6.609375 -2.859375 6.75 -3.515625 6.75 -4.390625 C 6.75 -5.253906 6.609375 -5.898438 6.328125 -6.328125 C 6.046875 -6.765625 5.585938 -6.984375 4.953125 -6.984375 C 4.316406 -6.984375 3.859375 -6.765625 3.578125 -6.328125 C 3.296875 -5.898438 3.15625 -5.253906 3.15625 -4.390625 Z M 9.1875 -4.390625 C 9.1875 -2.960938 8.8125 -1.847656 8.0625 -1.046875 C 7.3125 -0.242188 6.269531 0.15625 4.9375 0.15625 C 4.09375 0.15625 3.347656 -0.0234375 2.703125 -0.390625 C 2.066406 -0.765625 1.578125 -1.296875 1.234375 -1.984375 C 0.890625 -2.671875 0.71875 -3.472656 0.71875 -4.390625 C 0.71875 -5.816406 1.085938 -6.925781 1.828125 -7.71875 C 2.578125 -8.507812 3.628906 -8.90625 4.984375 -8.90625 C 5.816406 -8.90625 6.550781 -8.722656 7.1875 -8.359375 C 7.832031 -7.992188 8.328125 -7.46875 8.671875 -6.78125 C 9.015625 -6.101562 9.1875 -5.304688 9.1875 -4.390625 Z M 9.1875 -4.390625" transform="translate(208.279 175.325)"/></g></g></g><g><g><g><path d="M 2.15625 -3.796875 L 2.15625 -4.375 C 2.15625 -4.875 2.257812 -5.304688 2.46875 -5.671875 C 2.6875 -6.046875 3.082031 -6.441406 3.65625 -6.859375 C 4.195312 -7.242188 4.554688 -7.554688 4.734375 -7.796875 C 4.910156 -8.046875 5 -8.320312 5 -8.625 C 5 -8.96875 4.875 -9.226562 4.625 -9.40625 C 4.375 -9.582031 4.023438 -9.671875 3.578125 -9.671875 C 2.796875 -9.671875 1.90625 -9.414062 0.90625 -8.90625 L 0.046875 -10.609375 C 1.210938 -11.265625 2.445312 -11.59375 3.75 -11.59375 C 4.820312 -11.59375 5.671875 -11.332031 6.296875 -10.8125 C 6.929688 -10.300781 7.25 -9.613281 7.25 -8.75 C 7.25 -8.175781 7.117188 -7.679688 6.859375 -7.265625 C 6.597656 -6.847656 6.101562 -6.378906 5.375 -5.859375 C 4.875 -5.492188 4.554688 -5.210938 4.421875 -5.015625 C 4.296875 -4.828125 4.234375 -4.578125 4.234375 -4.265625 L 4.234375 -3.796875 Z M 1.90625 -1.125 C 1.90625 -1.5625 2.019531 -1.890625 2.25 -2.109375 C 2.488281 -2.335938 2.832031 -2.453125 3.28125 -2.453125 C 3.71875 -2.453125 4.050781 -2.335938 4.28125 -2.109375 C 4.519531 -1.878906 4.640625 -1.550781 4.640625 -1.125 C 4.640625 -0.707031 4.519531 -0.378906 4.28125 -0.140625 C 4.039062 0.0976562 3.707031 0.21875 3.28125 0.21875 C 2.84375 0.21875 2.503906 0.101562 2.265625 -0.125 C 2.023438 -0.363281 1.90625 -0.695312 1.90625 -1.125 Z M 1.90625 -1.125" transform="translate(222.333 175.325)"/></g></g></g></svg>